<?xml version="1.0" standalone="no"?><!DOCTYPE svg PUBLIC "-//W3C//DTD SVG 1.1//EN" "http://www.w3.org/Graphics/SVG/1.1/DTD/svg11.dtd"><svg t="1553753828911" class="icon" style="" viewBox="0 0 1024 1024" version="1.1" xmlns="http://www.w3.org/2000/svg" p-id="2866" xmlns:xlink="http://www.w3.org/1999/xlink" width="256" height="256"><defs><style type="text/css"></style></defs><path d="M924.96106 444.165782c-33.027461-80.119248-18.884123-131.872806-18.884123-131.872805a61.86723 61.86723 0 0 0-14.143338-56.573355 61.709204 61.709204 0 0 0-56.494342-14.143339 233.325581 233.325581 0 0 0-127.211034 113.067697v4.740784C675.200761 222.692161 717.393738 86.078571 722.292548 71.935233c4.740784-18.805109 4.740784-37.689232-9.402555-51.832571s-32.948448-23.70392-51.83257-18.805109c-9.402555 0-230.876176 28.207664-320.397979 277.967963a779.700926 779.700926 0 0 0-32.948448 164.900266c-9.481568-42.351003-18.884123-94.183574-18.884123-122.470251-4.740784-23.70392-18.884123-42.430016-42.430016-47.407839s-47.407839 0-56.494341 18.884123C180.104895 298.149638 86.237374 420.619889 67.353252 543.169153a398.699926 398.699926 0 0 0 71.111758 301.513856c70.63768 94.262587 179.043605 155.497712 306.25464 174.381835a509.081178 509.081178 0 0 0 84.781019 4.740784c221.236582 0 395.855456-136.692603 428.803905-348.763669 9.086502-94.183574 4.029666-145.621079-33.343514-230.876177z" fill="#FF0C00" p-id="2867"></path><path d="M436.423279 571.771882L391.148792 782.262688h-65.343805l18.252019-85.729176h-70.558668L255.48336 782.262688h-65.97591l45.274487-210.727845h65.422817l-15.802613 74.430308h70.400641l16.592744-74.430308zM575.723312 568.137281q48.118957 0 71.111759 25.837273a92.603312 92.603312 0 0 1 22.597737 63.210452 154.628568 154.628568 0 0 1-4.187693 33.106474 130.608597 130.608597 0 0 1-15.802613 38.558376 112.593618 112.593618 0 0 1-30.973121 33.738579 111.171383 111.171383 0 0 1-36.58305 18.56807 145.542066 145.542066 0 0 1-37.215153 4.661771q-45.11646 0-70.400641-22.834776c-16.908796-15.249522-25.284181-36.583049-25.284181-64.079596a143.092661 143.092661 0 0 1 6.242032-42.113963 139.537073 139.537073 0 0 1 18.647083-38.637389A114.884997 114.884997 0 0 1 504.058462 587.890548a101.768828 101.768828 0 0 1 35.792919-15.802613 170.747234 170.747234 0 0 1 35.871931-3.950654z m-27.733585 169.957104a42.034951 42.034951 0 0 0 31.605226-14.301365A85.808189 85.808189 0 0 0 598.87414 688.000101a133.374054 133.374054 0 0 0 6.004993-30.894108 41.481859 41.481859 0 0 0-10.271698-30.578056A35.160814 35.160814 0 0 0 568.69115 616.335251a41.718898 41.718898 0 0 0-30.65707 12.958143A81.46247 81.46247 0 0 0 518.675879 663.74309a131.003662 131.003662 0 0 0-6.71611 36.899102 38.795415 38.795415 0 0 0 9.481568 26.785429 33.343513 33.343513 0 0 0 26.54839 10.666764zM894.224978 571.771882L883.321175 623.52544h-68.267288L780.60419 782.262688h-65.264792l34.212658-158.974287h-65.422818l10.903803-51.753558z" fill="#890300" p-id="2868"></path><path d="M428.521972 555.969269L383.247486 766.460075h-65.343805l18.252018-85.729176h-70.558667L247.582053 766.460075h-65.975909l45.274486-210.727845h65.422818l-15.802613 74.430308h70.400641l16.592744-74.430308zM567.822006 552.334668q48.118957 0 71.111758 25.837273a92.603312 92.603312 0 0 1 22.597737 63.210452 154.628568 154.628568 0 0 1-4.187692 33.106474 130.608597 130.608597 0 0 1-15.802613 38.558376 112.593618 112.593618 0 0 1-30.973122 33.738579 111.171383 111.171383 0 0 1-36.583049 18.56807 145.542066 145.542066 0 0 1-37.215154 4.661771q-45.11646 0-70.400641-22.834776c-16.908796-15.249522-25.284181-36.583049-25.284181-64.079596a143.092661 143.092661 0 0 1 6.242033-42.113963 139.537073 139.537073 0 0 1 18.647083-38.637389A114.884997 114.884997 0 0 1 496.157156 572.087935a101.768828 101.768828 0 0 1 35.792918-15.802613 170.747234 170.747234 0 0 1 35.871932-3.950654z m-27.733586 169.957103a42.034951 42.034951 0 0 0 31.605226-14.301364A85.808189 85.808189 0 0 0 590.972834 672.197488a133.374054 133.374054 0 0 0 6.004993-30.894108 41.481859 41.481859 0 0 0-10.271699-30.578056A35.160814 35.160814 0 0 0 560.789843 600.532638a41.718898 41.718898 0 0 0-30.657069 12.958143A81.46247 81.46247 0 0 0 510.774573 647.940477a131.003662 131.003662 0 0 0-6.716111 36.899102 38.795415 38.795415 0 0 0 9.481568 26.785429 33.343513 33.343513 0 0 0 26.54839 10.666763zM886.323671 555.969269L875.419868 607.722827h-68.267288L772.702884 766.460075h-65.264792l34.212657-158.974287h-65.422818l10.903803-51.753558z" fill="#FFFFFF" p-id="2869"></path></svg>